<svg width="19" height="15" viewBox="0 0 19 15" fill="none" xmlns="http://www.w3.org/2000/svg">
<path d="M12.8767 0.0962593V0.0930176H13.7207L14.029 0.15461C14.2346 0.194596 14.4213 0.246997 14.589 0.311831C14.7567 0.376665 14.9191 0.452309 15.0759 0.538749C15.2328 0.625188 15.3751 0.713265 15.5028 0.802946C15.6294 0.891557 15.743 0.985566 15.8437 1.08497C15.9432 1.18546 16.0985 1.2114 16.3095 1.16277C16.5205 1.11415 16.7477 1.04661 16.9912 0.960167C17.2346 0.873728 17.4754 0.776478 17.7135 0.668416C17.9515 0.560355 18.0965 0.491744 18.1485 0.462569C18.1993 0.432324 18.2264 0.416116 18.2296 0.413944L18.2328 0.409082L18.2491 0.400977L18.2653 0.392873L18.2815 0.384769L18.2978 0.376665L18.301 0.371802L18.3059 0.368561L18.3108 0.365319L18.314 0.360456L18.3302 0.355594L18.3465 0.352352L18.3432 0.376665L18.3383 0.400977L18.3302 0.42529L18.3221 0.449603L18.314 0.465811L18.3059 0.482019L18.2978 0.506332C18.2924 0.52254 18.287 0.544146 18.2815 0.571166C18.2761 0.598185 18.2247 0.70623 18.1273 0.895334C18.03 1.08444 17.9082 1.27623 17.7621 1.47073C17.6161 1.66523 17.4851 1.81218 17.3694 1.9116C17.2525 2.01209 17.1751 2.08232 17.1373 2.12231C17.0994 2.16337 17.0534 2.20118 16.9993 2.23577L16.9181 2.28926L16.9019 2.29736L16.8857 2.30547L16.8824 2.31033L16.8776 2.31357L16.8727 2.31681L16.8694 2.32167L16.8532 2.32978L16.837 2.33788L16.8338 2.34274L16.8289 2.34599L16.824 2.34923L16.8208 2.35409L16.8175 2.35895L16.8126 2.36219L16.8078 2.36544L16.8045 2.3703H16.8857L17.3401 2.27305C17.6431 2.20821 17.9326 2.12988 18.2085 2.03803L18.6467 1.89215L18.6954 1.87594L18.7198 1.86784L18.736 1.85973L18.7522 1.85163L18.7685 1.84353L18.7847 1.83542L18.8171 1.83056L18.8496 1.82732V1.85973L18.8415 1.86298L18.8334 1.86784L18.8301 1.8727L18.8253 1.87594L18.8204 1.87918L18.8171 1.88405L18.8139 1.88891L18.809 1.89215L18.8042 1.89539L18.8009 1.90026L18.7977 1.90512L18.7928 1.90836L18.7847 1.92457L18.7766 1.94078L18.7717 1.94402C18.7695 1.94726 18.7008 2.0391 18.5656 2.21956C18.4303 2.40109 18.3573 2.49293 18.3465 2.4951C18.3356 2.49835 18.3205 2.51455 18.301 2.54373C18.2826 2.57397 18.1679 2.69447 17.9569 2.90518C17.7459 3.11589 17.5393 3.30335 17.3369 3.46761C17.1335 3.63293 17.0307 3.83607 17.0285 4.07704C17.0253 4.31693 17.0128 4.58816 16.9912 4.89071C16.9695 5.19327 16.929 5.52013 16.8694 5.87132C16.8099 6.2225 16.718 6.61961 16.5935 7.06263C16.4691 7.50566 16.3176 7.93789 16.1391 8.35931C15.9605 8.78072 15.7739 9.15892 15.5791 9.49389C15.3843 9.82887 15.2058 10.1125 15.0435 10.3448C14.8812 10.5772 14.7162 10.796 14.5484 11.0013C14.3807 11.2066 14.1687 11.4378 13.9122 11.695C13.6547 11.9511 13.514 12.0916 13.4902 12.1164C13.4653 12.1402 13.3593 12.2288 13.1721 12.3822C12.986 12.5367 12.7858 12.6913 12.5715 12.8458C12.3584 12.9992 12.1625 13.1273 11.984 13.2299C11.8054 13.3326 11.5901 13.4498 11.338 13.5817C11.087 13.7146 10.8153 13.8377 10.5232 13.9512C10.231 14.0647 9.92265 14.17 9.59803 14.2673C9.27341 14.3645 8.95962 14.4402 8.65664 14.4942C8.35368 14.5482 8.01012 14.5941 7.62598 14.632L7.04979 14.6887V14.6968H5.99479V14.6887L5.85682 14.6806C5.76486 14.6752 5.68911 14.6698 5.62959 14.6644C5.57009 14.659 5.34555 14.6293 4.95601 14.5752C4.56647 14.5212 4.2608 14.4672 4.03897 14.4131C3.81716 14.3591 3.48712 14.2565 3.04889 14.1052C2.61066 13.9539 2.23572 13.801 1.92409 13.6465C1.61355 13.493 1.41878 13.3958 1.33978 13.3547C1.26187 13.3148 1.17423 13.2651 1.07684 13.2056L0.930764 13.1165L0.927534 13.1116L0.922648 13.1084L0.917779 13.1051L0.914533 13.1003L0.898302 13.0922L0.882071 13.0841L0.878841 13.0792L0.873956 13.076L0.869086 13.0727L0.86584 13.0678L0.86261 13.063L0.857725 13.0597H0.849609V13.0273L0.86584 13.0306L0.882071 13.0354L0.95511 13.0435C1.0038 13.0489 1.13636 13.057 1.35277 13.0678C1.56919 13.0787 1.79911 13.0787 2.04258 13.0678C2.28604 13.057 2.53492 13.0327 2.78919 12.9949C3.04348 12.9571 3.34375 12.8923 3.69001 12.8004C4.03627 12.7086 4.3544 12.5994 4.6444 12.473C4.9333 12.3455 5.13888 12.2504 5.26117 12.1877C5.38235 12.1261 5.56738 12.0116 5.81625 11.8441L6.18956 11.5929L6.1928 11.588L6.19767 11.5848L6.20256 11.5815L6.20579 11.5767L6.20903 11.5718L6.2139 11.5686L6.21879 11.5653L6.22202 11.5605L6.23825 11.5556L6.25448 11.5524L6.25772 11.5362L6.26259 11.5199L6.26748 11.5167L6.27071 11.5118L6.14086 11.5037C6.0543 11.4983 5.97044 11.4929 5.88928 11.4875C5.80813 11.4821 5.68099 11.4578 5.50786 11.4146C5.33474 11.3714 5.14809 11.3065 4.9479 11.2201C4.74772 11.1337 4.55295 11.031 4.36359 10.9121C4.17424 10.7933 4.03735 10.6944 3.95295 10.6155C3.86963 10.5377 3.76142 10.4275 3.62833 10.2849C3.49632 10.1412 3.38162 9.99365 3.28424 9.84237C3.18685 9.6911 3.0938 9.51657 3.00508 9.31884L2.87035 9.02385L2.86223 8.99954L2.85412 8.97523L2.84925 8.95902L2.846 8.94281L2.87035 8.94605L2.8947 8.95091L3.07323 8.97523C3.19227 8.99143 3.37893 8.99683 3.6332 8.99143C3.88749 8.98604 4.06332 8.97523 4.1607 8.95902C4.25809 8.94281 4.3176 8.932 4.33924 8.9266L4.3717 8.9185L4.41228 8.91039L4.45286 8.90229L4.4561 8.89743L4.46097 8.89418L4.46586 8.89094L4.46909 8.88608L4.43662 8.87797L4.40416 8.86987L4.3717 8.86177L4.33924 8.85366L4.30678 8.84556C4.28514 8.84016 4.24728 8.82935 4.19316 8.81314C4.13906 8.79693 3.99299 8.7375 3.75493 8.63485C3.51689 8.5322 3.32752 8.43224 3.18685 8.33499C3.04583 8.23746 2.91137 8.1308 2.78433 8.01569C2.65772 7.89899 2.51869 7.74878 2.36719 7.56509C2.21571 7.3814 2.08046 7.16799 1.96142 6.92486C1.8424 6.68174 1.75313 6.44942 1.69361 6.2279C1.63433 6.00768 1.59522 5.78254 1.57677 5.55525L1.54754 5.21487L1.56377 5.21812L1.58 5.22298L1.59623 5.23108L1.61246 5.23919L1.62869 5.24729L1.64492 5.2554L1.8965 5.36885C2.06423 5.4445 2.27252 5.50933 2.52139 5.56336C2.77027 5.61738 2.91904 5.6471 2.96773 5.6525L3.04077 5.66061H3.18685L3.18362 5.65574L3.17873 5.6525L3.17387 5.64926L3.17062 5.6444L3.16739 5.63953L3.1625 5.63629L3.15763 5.63305L3.15439 5.62819L3.13816 5.62008L3.12193 5.61198L3.1187 5.60712L3.11381 5.60388L3.10894 5.60063L3.1057 5.59577L3.08947 5.58767L3.07323 5.57956L3.07 5.5747C3.06676 5.57253 3.02022 5.53796 2.9304 5.47097C2.84167 5.40289 2.74862 5.31483 2.65123 5.20677C2.55385 5.09871 2.45646 4.98525 2.35908 4.86639C2.26151 4.74727 2.17461 4.61981 2.09938 4.4855C2.02365 4.35043 1.94357 4.17861 1.85917 3.97007C1.77585 3.7626 1.71255 3.55351 1.66927 3.3428C1.626 3.13209 1.60165 2.92409 1.59623 2.71878C1.59082 2.51347 1.59623 2.33788 1.61246 2.19201C1.62869 2.04613 1.66115 1.88134 1.70984 1.69765C1.75854 1.51396 1.82888 1.31946 1.92084 1.11415L2.05881 0.806188L2.06692 0.781875L2.07504 0.757562L2.07992 0.754321L2.08315 0.749458L2.0864 0.744596L2.09127 0.741354L2.09615 0.744596L2.09938 0.749458L2.10263 0.754321L2.1075 0.757562L2.11238 0.760804L2.11561 0.765667L2.11886 0.770529L2.12373 0.773771L2.13185 0.789979L2.13996 0.806188L2.14485 0.809429L2.14808 0.814292L2.36719 1.05742C2.51327 1.2195 2.6864 1.4005 2.88658 1.6004C3.08677 1.8003 3.19768 1.90403 3.21931 1.9116C3.24096 1.92024 3.268 1.94509 3.30047 1.98616C3.33293 2.02615 3.44114 2.12178 3.62508 2.27305C3.80904 2.42432 4.0498 2.59992 4.34736 2.79982C4.64493 2.99972 4.97495 3.19693 5.33744 3.39143C5.69994 3.58593 6.08948 3.76152 6.50606 3.9182C6.92265 4.07489 7.21481 4.17754 7.38252 4.22616C7.55025 4.27479 7.83699 4.33691 8.24276 4.41256C8.64853 4.4882 8.95422 4.53683 9.1598 4.55843C9.36539 4.58004 9.50607 4.59247 9.5818 4.59571L9.69542 4.59896L9.69219 4.57464L9.6873 4.55033L9.65484 4.34772C9.6332 4.21266 9.62238 4.02356 9.62238 3.78043C9.62238 3.5373 9.64132 3.31309 9.67919 3.10778C9.71707 2.90247 9.77388 2.69447 9.84961 2.48376C9.92536 2.27305 9.99949 2.10393 10.072 1.97643C10.1456 1.85001 10.2419 1.70575 10.3609 1.54367C10.4799 1.38159 10.6341 1.2141 10.8235 1.04121C11.0128 0.868314 11.2292 0.714334 11.4727 0.57927C11.7162 0.444205 11.9407 0.341541 12.1463 0.27131C12.3519 0.201079 12.525 0.155144 12.6657 0.133539C12.8063 0.111933 12.8767 0.0995009 12.8767 0.0962593Z" fill="#ADFF4D"/>
</svg>
