<svg width="48" height="48" viewBox="0 0 48 48" fill="none" xmlns="http://www.w3.org/2000/svg">
<path d="M24 20V6M26.8283 21.1715L36.7278 11.272M28 24H42M26.8285 26.8283L36.728 36.7278M24 28V42M21.1717 26.8285L11.2722 36.728M20 24H6M21.1715 21.1717L11.272 11.2722M42 24C42 33.9411 33.9411 42 24 42C14.0589 42 6 33.9411 6 24C6 14.0589 14.0589 6 24 6C33.9411 6 42 14.0589 42 24ZM28 24C28 26.2091 26.2091 28 24 28C21.7909 28 20 26.2091 20 24C20 21.7909 21.7909 20 24 20C26.2091 20 28 21.7909 28 24Z" stroke="#1C79BF" stroke-width="2" stroke-linecap="round" stroke-linejoin="round"/>
</svg>
